<?xml version="1.0" encoding="UTF-8" standalone="no"?>
<!-- Created with Inkscape (http://www.inkscape.org/) -->

<svg
   xmlns:dc="http://purl.org/dc/elements/1.1/"
   xmlns:cc="http://creativecommons.org/ns#"
   xmlns:rdf="http://www.w3.org/1999/02/22-rdf-syntax-ns#"
   xmlns:svg="http://www.w3.org/2000/svg"
   xmlns="http://www.w3.org/2000/svg"
   xmlns:xlink="http://www.w3.org/1999/xlink"
   xmlns:sodipodi="http://sodipodi.sourceforge.net/DTD/sodipodi-0.dtd"
   xmlns:inkscape="http://www.inkscape.org/namespaces/inkscape"
   width="1024"
   height="1024"
   viewBox="0 0 1024 1024"
   id="svg2"
   version="1.1"
   inkscape:version="0.91 r13725"
   sodipodi:docname="Logo.svg"
   inkscape:export-filename="/home/antonia/DriveTwo/Projects/Wright-lang/images/Logo.png"
   inkscape:export-xdpi="90"
   inkscape:export-ydpi="90">
  <defs
     id="defs4">
    <linearGradient
       inkscape:collect="always"
       id="linearGradient5307">
      <stop
         style="stop-color:#001eff;stop-opacity:1"
         offset="0"
         id="stop5309" />
      <stop
         id="stop5315"
         offset="0.43718636"
         style="stop-color:#7f83ff;stop-opacity:1" />
      <stop
         style="stop-color:#ffc400;stop-opacity:1"
         offset="0.78132337"
         id="stop5317" />
      <stop
         style="stop-color:#ff6d3e;stop-opacity:1"
         offset="1"
         id="stop5311" />
    </linearGradient>
    <inkscape:perspective
       sodipodi:type="inkscape:persp3d"
       inkscape:vp_x="0 : 512 : 1"
       inkscape:vp_y="0 : 1000 : 0"
       inkscape:vp_z="1024 : 512 : 1"
       inkscape:persp3d-origin="512 : 341.33333 : 1"
       id="perspective5210" />
    <marker
       inkscape:stockid="Arrow1Lstart"
       orient="auto"
       refY="0.0"
       refX="0.0"
       id="Arrow1Lstart"
       style="overflow:visible"
       inkscape:isstock="true">
      <path
         id="path4193"
         d="M 0.0,0.0 L 5.0,-5.0 L -12.5,0.0 L 5.0,5.0 L 0.0,0.0 z "
         style="fill-rule:evenodd;stroke:#ffffff;stroke-width:1pt;stroke-opacity:1;fill:#000000;fill-opacity:1"
         transform="scale(0.8) translate(12.5,0)" />
    </marker>
    <marker
       style="overflow:visible"
       id="DistanceStart"
       refX="0.0"
       refY="0.0"
       orient="auto"
       inkscape:stockid="DistanceStart"
       inkscape:isstock="true">
      <g
         id="g2300"
         style="stroke:#ffffff;stroke-opacity:1;fill:#000000;fill-opacity:1">
        <path
           style="fill:#000000;stroke:#ffffff;stroke-width:1.15;stroke-linecap:square;stroke-opacity:1;fill-opacity:1"
           d="M 0,0 L 2,0"
           id="path2306" />
        <path
           style="fill:#000000;fill-rule:evenodd;stroke:#ffffff;stroke-opacity:1;fill-opacity:1"
           d="M 0,0 L 13,4 L 9,0 13,-4 L 0,0 z "
           id="path2302" />
        <path
           style="fill:#000000;stroke:#ffffff;stroke-width:1;stroke-linecap:square;stroke-opacity:1;fill-opacity:1"
           d="M 0,-4 L 0,40"
           id="path2304" />
      </g>
    </marker>
    <linearGradient
       inkscape:collect="always"
       xlink:href="#linearGradient5307"
       id="linearGradient5313"
       x1="58.57143"
       y1="934.36218"
       x2="1011.1429"
       y2="195.79077"
       gradientUnits="userSpaceOnUse"
       gradientTransform="translate(-20,-11.142858)" />
  </defs>
  <sodipodi:namedview
     id="base"
     pagecolor="#ffffff"
     bordercolor="#666666"
     borderopacity="1.0"
     inkscape:pageopacity="0.0"
     inkscape:pageshadow="2"
     inkscape:zoom="0.7"
     inkscape:cx="794.11242"
     inkscape:cy="487.10573"
     inkscape:document-units="px"
     inkscape:current-layer="layer1"
     showgrid="false"
     inkscape:window-width="1920"
     inkscape:window-height="1007"
     inkscape:window-x="0"
     inkscape:window-y="24"
     inkscape:window-maximized="1"
     units="px"
     width="128px" />
  <metadata
     id="metadata7">
    <rdf:RDF>
      <cc:Work
         rdf:about="">
        <dc:format>image/svg+xml</dc:format>
        <dc:type
           rdf:resource="http://purl.org/dc/dcmitype/StillImage" />
        <dc:title></dc:title>
      </cc:Work>
    </rdf:RDF>
  </metadata>
  <g
     inkscape:label="Layer 1"
     inkscape:groupmode="layer"
     id="layer1"
     transform="translate(0,-28.3622)">
    <rect
       style="opacity:1;fill:url(#linearGradient5313);fill-opacity:1;stroke:none;stroke-width:2.5;stroke-linecap:round;stroke-linejoin:bevel;stroke-miterlimit:4;stroke-dasharray:none;stroke-dashoffset:0;stroke-opacity:1"
       id="rect5305"
       width="1024"
       height="1024"
       x="0"
       y="28.3622"
       ry="512" />
    <path
       style="opacity:1;fill:#000000;fill-opacity:1;stroke:#ffffff;stroke-width:4.67686224;stroke-linecap:round;stroke-linejoin:bevel;stroke-miterlimit:4;stroke-dasharray:none;stroke-dashoffset:0;stroke-opacity:1"
       d="m 254.57928,471.48173 c 0,0 79.18602,2.34184 118.88309,0 39.69708,-2.34184 79.18603,-11.73362 118.8831,-14.07546 39.69708,-2.34183 79.18602,-2.34183 118.8831,0 39.69708,2.34184 118.8831,14.07546 118.8831,14.07546 11.51408,1.36324 20.92871,4.09341 20.92871,9.17805 l 0,88.98292 c 0,5.08464 -9.63484,10.32841 -20.92871,9.17805 l -419.81384,-42.7611 c -11.29387,-1.15036 -15.50996,-4.68287 -20.92872,-9.17805 l -55.71856,-46.22182 c -5.41876,-4.49517 9.33422,-9.17805 20.92873,-9.17805 z"
       id="rect5270"
       inkscape:connector-curvature="0"
       sodipodi:nodetypes="ssssssssssss" />
    <path
       style="opacity:1;fill:#800080;fill-opacity:1;stroke:#ffffff;stroke-width:2.79122949;stroke-linecap:round;stroke-linejoin:bevel;stroke-miterlimit:4;stroke-dasharray:none;stroke-dashoffset:0;stroke-opacity:1"
       d="m 741.43905,426.42743 c 15.58726,3.47739 20.24042,6.28396 20.96888,14.81011 0.84148,9.84894 -9.35211,20.96888 -20.96888,20.96888 l -273.74812,0 c -11.61676,0 -48.17054,-9.35212 -48.17054,-20.96888 30.61329,-25.59979 246.27055,-14.81011 321.91866,-14.81011 z"
       id="rect5264"
       inkscape:connector-curvature="0"
       sodipodi:nodetypes="casscc" />
    <path
       style="opacity:1;fill:#800080;fill-opacity:1;stroke:#ffffff;stroke-width:2.79122949;stroke-linecap:round;stroke-linejoin:bevel;stroke-miterlimit:4;stroke-dasharray:none;stroke-dashoffset:0;stroke-opacity:1"
       d="m 467.69093,545.54267 c 91.83945,0 183.67889,0 275.51834,0 10.63606,0 19.09029,10.14898 19.19866,19.19867 0.11107,9.27445 -9.93143,20.52345 -19.19866,20.14103 -144.89668,-5.97928 -323.4367,-1.01803 -323.68888,-20.14103 -0.22792,-17.28365 37.53448,-19.19867 48.17054,-19.19867 z"
       id="rect5266"
       inkscape:connector-curvature="0"
       sodipodi:nodetypes="ssssss" />
    <rect
       style="opacity:1;fill:#000000;fill-opacity:1;stroke:#ffffff;stroke-width:3.44826198;stroke-linecap:round;stroke-linejoin:bevel;stroke-miterlimit:4;stroke-dasharray:none;stroke-dashoffset:0;stroke-opacity:1"
       id="rect5268"
       width="16.378201"
       height="120.46712"
       x="763.09454"
       y="452.93463"
       ry="9.3088331" />
    <path
       style="opacity:1;fill:#000000;fill-opacity:1;stroke:#ffffff;stroke-width:2.10392904;stroke-linecap:round;stroke-linejoin:bevel;stroke-miterlimit:4;stroke-dasharray:none;stroke-dashoffset:0;stroke-opacity:1"
       d="m 225.33766,546.551 0,-109.93055 c 0,-11.70789 9.42549,-21.13338 21.13338,-21.13338 l 9.22183,0 c 11.7079,0 21.13338,9.42549 21.13338,21.13338 l 0,134.71355 c 0,11.70789 -11.22141,22.13421 -21.13338,21.13338 -18.2549,-1.84323 -29.9013,-30.31438 -30.35521,-45.91638 z"
       id="rect5273"
       inkscape:connector-curvature="0"
       sodipodi:nodetypes="csssssac" />
    <g
       style="font-style:normal;font-weight:normal;font-size:20px;line-height:125%;font-family:sans-serif;letter-spacing:0px;word-spacing:0px;fill:#000000;fill-opacity:1;stroke:none;stroke-width:1px;stroke-linecap:butt;stroke-linejoin:miter;stroke-opacity:1"
       id="text5290"
       transform="matrix(0.61957693,0,0,0.61957693,170.294,208.11194)">
      <path
         d="m 784.59406,420.93921 -17.13868,11.60156 -33.22265,101.60156 c 0,0 -1.74472,3.40675 -3.33985,3.42774 -1.5537,0.0204 -3.33984,-3.25195 -3.33984,-3.25195 l -28.82813,-88.1543 -28.38867,87.97851 c 0,0 -1.94584,3.44846 -3.60351,3.42774 -1.53287,-0.0192 -3.25196,-3.25195 -3.25196,-3.25195 l -34.71679,-106.08399 -15.64453,-7.29492 0,-5.44922 45.70312,0 0,5.44922 -14.58984,5.09766 0.35156,2.37304 27.77344,85.07813 24.16992,-74.26758 -3.07617,-11.16211 -16.34766,-7.11914 0,-5.44922 45.70313,0 0,5.44922 -14.50196,5.09766 0.43946,2.63671 27.77343,84.81446 26.01563,-79.98047 0.8789,-3.42774 -15.11718,-9.14062 0,-5.44922 36.29883,0 z"
         style="font-style:normal;font-variant:normal;font-weight:normal;font-stretch:semi-condensed;font-size:180px;font-family:Symbola;-inkscape-font-specification:'Symbola Semi-Condensed';fill:#800080;stroke:none;stroke-opacity:1"
         id="path5295"
         inkscape:connector-curvature="0"
         sodipodi:nodetypes="cccacccacccccccccccccccccccccccc" />
    </g>
    <circle
       style="opacity:1;fill:#dfdfdf;fill-opacity:1;stroke:none;stroke-width:2.5;stroke-linecap:round;stroke-linejoin:bevel;stroke-miterlimit:4;stroke-dasharray:none;stroke-dashoffset:0;stroke-opacity:1"
       id="path5319"
       cx="230.71428"
       cy="803.07648"
       r="69.285713" />
    <circle
       r="69.285713"
       cy="217.36221"
       cx="798.14282"
       id="circle5321"
       style="opacity:1;fill:#ffed30;fill-opacity:1;stroke:none;stroke-width:2.5;stroke-linecap:round;stroke-linejoin:bevel;stroke-miterlimit:4;stroke-dasharray:none;stroke-dashoffset:0;stroke-opacity:1" />
  </g>
</svg>
